<svg width="500" height="250" xmlns="http://www.w3.org/2000/svg">

 <g>
  <title>background</title>
  <rect fill="none" id="canvas_background" height="252" width="502" y="-1" x="-1"/>
 </g>
 <g>
  <title>Layer 1</title>
  <g stroke="null" id="OBJECTS">
   <g stroke="null" id="svg_242">
    <g stroke="null" id="svg_243">
     <g stroke="null" id="svg_244">
      <path stroke="null" id="svg_245" fill="#E2B061" d="m420.91586,176.38931c-0.94823,-17.46696 -4.42879,-34.22694 -9.18807,-51.05942c16.74882,-12.6784 30.42565,-29.38817 39.544,-48.31234c4.18755,-8.69165 7.45058,-17.95502 8.26634,-27.56841c0.11156,-1.31776 0.1255,-2.79728 -0.76695,-3.7734c-0.59125,-0.64842 -1.47115,-0.93847 -2.3134,-1.1825c-23.68903,-6.85654 -48.62609,3.47777 -70.89138,14.08122c-22.26529,10.60345 -46.25831,20.82481 -70.75054,17.94387c-5.18041,-0.60938 -10.12933,-3.03852 -13.78002,-6.7659c-0.3765,-0.38487 -0.806,-0.81157 -1.34426,-0.80739c-0.58009,0.00418 -1.01935,0.50758 -1.35262,0.9817c-3.05944,4.33537 -4.52919,9.84347 -3.43315,15.03503c-3.0427,-1.74865 -6.25553,-4.96705 -8.04601,-7.98745c-3.06083,2.70803 -4.33118,6.91511 -4.83876,10.97158c-0.50898,4.05508 -0.403,8.2008 -1.36796,12.17221c-2.48632,10.22555 -12.79553,17.86299 -23.26232,17.56736c-2.58672,-4.2503 -3.47638,-9.52414 -2.34687,-14.37685c-2.35105,-0.03904 -4.67561,1.28429 -5.84417,3.32438c-4.26285,-2.7666 -6.49677,-7.24699 -7.33624,-12.10946c-2.85166,2.12097 -3.97838,6.57765 -3.68276,10.61042c-12.94892,-6.97507 -27.67996,-10.84469 -42.27434,-10.99947c-21.76607,-0.23148 -43.1919,5.57783 -63.53562,13.32264c-8.78089,3.34391 -17.53669,7.12149 -24.92173,12.93219c-7.99024,6.2876 -14.05752,14.72267 -18.96321,23.62907c-8.73488,15.86194 -14.11608,33.9327 -12.97821,52.00486c0.46017,7.3195 4.46923,15.29579 6.87885,22.47864c-0.91476,-0.85759 -2.60206,-1.31218 -3.97002,-1.37075c-4.33537,-0.18546 -8.67073,-0.37093 -13.00749,-0.55639c-4.45947,-0.19104 -9.15182,-0.33328 -13.12323,1.70403c-3.97281,2.0373 -6.791,7.05734 -4.83876,11.07198c-5.32961,-1.1072 -11.22816,1.99128 -13.34216,7.00714c-0.57312,1.36099 -0.91337,2.86421 -1.8602,3.99791c-1.22433,1.46418 -3.29928,2.10005 -4.30329,3.7232c-1.34007,2.16559 -0.19522,4.95729 0.95799,7.22747c0.30539,0.59962 0.62193,1.21597 1.13648,1.65104c1.49346,1.26198 3.85567,0.40021 5.23897,-0.9817c1.3833,-1.38191 2.31619,-3.21701 3.91842,-4.33955c2.45006,-1.71658 5.83022,-1.308 8.59125,-0.15897c2.76102,1.14903 5.23061,2.94649 8.05159,3.94492c12.25727,4.33537 25.25361,-7.59003 38.01428,-5.09534c1.95642,0.38208 5.30591,2.3148 7.16751,3.02737l194.5992,0c0.49085,0 -0.00558,-0.23148 0.48527,-0.23148c10.08053,2.03451 19.52518,7.11731 26.77775,14.40892c1.47812,-3.118 2.95485,-6.23601 4.43298,-9.35401c4.57103,5.24595 13.40212,6.01987 18.8168,1.65104c2.13352,-1.72215 3.71902,-4.06205 5.92365,-5.69357c4.25588,-3.15008 9.9871,-3.14032 15.28185,-3.05665c37.06605,0.58149 74.90184,-2.25065 111.7392,-7.4464c5.07024,-0.71536 7.77549,-6.29039 5.26686,-10.75544c-13.64197,-24.29283 -37.09254,-44.74672 -63.42546,-52.48734z"/>
     </g>
    </g>
    <g stroke="null" id="svg_246">
     <g stroke="null" id="svg_247">
      <path stroke="null" id="svg_248" fill="#F4EEE4" d="m86.00645,148.80277c-0.51595,1.04445 -1.01656,2.09726 -1.50183,3.15844c-0.11574,0.25379 -0.23566,0.50619 -0.35001,0.75998c-0.59264,1.32194 -1.16019,2.65365 -1.70124,3.99791c-0.07391,0.18546 -0.14363,0.37232 -0.21754,0.55778c-0.47412,1.19644 -0.92592,2.39986 -1.35681,3.61164c-0.09064,0.25658 -0.18267,0.51177 -0.27192,0.76974c-0.97333,2.80844 -1.82953,5.65313 -2.54907,8.5285c-0.04462,0.1771 -0.08646,0.35559 -0.12968,0.53408c-0.33467,1.37075 -0.64284,2.74847 -0.91476,4.13038c-0.01673,0.08367 -0.03486,0.16733 -0.05159,0.251c-0.29562,1.52135 -0.5536,3.04828 -0.76974,4.5794c0,0 0,0 0,0.00139c7.51054,8.32909 19.71483,10.00801 30.79518,11.80826c10.73174,1.74307 21.64894,3.96026 32.16175,6.73801c13.0549,3.44989 26.98971,3.51542 40.07668,0.18546c17.83789,-4.53756 35.29788,-15.3181 53.30868,-11.52658c9.79187,2.06101 18.36918,8.4281 24.25936,16.51734c5.89018,8.08924 9.2578,17.80163 10.97577,27.65904c0.76835,4.40788 1.27314,9.01656 3.58236,12.84992c0.7809,1.29824 1.1825,3.45267 1.69426,5.43699l22.57625,0c0.49085,0 -0.00558,-0.23148 0.48527,-0.23148c0.23566,0.04741 0.46435,0.11853 0.69862,0.16873c-3.37737,-18.27296 -21.54575,-51.1138 -26.75962,-68.91125c-6.18023,-21.09394 -6.80216,-43.78315 -1.83789,-65.19224c-0.76416,0.38208 -1.54645,0.72093 -2.34408,1.02074c-0.1018,0.03904 -0.20359,0.07948 -0.30539,0.11713c-0.33885,0.12132 -0.6791,0.23427 -1.02214,0.34025c-0.22032,0.06833 -0.44065,0.13108 -0.66237,0.19243c-0.29562,0.08227 -0.58986,0.16733 -0.88827,0.23845c-0.49782,0.11853 -0.99983,0.21754 -1.50322,0.3012c-0.19941,0.03207 -0.40021,0.05578 -0.59962,0.08227c-0.40021,0.05578 -0.80181,0.1004 -1.20481,0.13247c-0.18407,0.01534 -0.36674,0.03068 -0.5522,0.04044c-0.57591,0.03207 -1.15322,0.04881 -1.73191,0.03207c-2.58672,-4.2503 -3.47638,-9.52414 -2.34687,-14.37685c-2.35105,-0.03904 -4.67561,1.28429 -5.84417,3.32438c-4.26285,-2.7666 -6.49677,-7.24699 -7.33624,-12.10946c-2.85166,2.12097 -3.97838,6.57765 -3.68276,10.61042c-12.94892,-6.97507 -27.67996,-10.84469 -42.27434,-10.99947c-21.76607,-0.23148 -43.1919,5.57783 -63.53562,13.32264c-8.78089,3.34391 -17.53669,7.12149 -24.92173,12.93219c-7.99024,6.2876 -14.05752,14.72267 -18.96321,23.62907c-0.68189,1.23828 -1.33449,2.49329 -1.97455,3.75667c-0.17012,0.34304 -0.33885,0.68607 -0.50898,1.0305z"/>
     </g>
    </g>
    <g stroke="null" id="svg_249">
     <g stroke="null" id="svg_250">
      <g stroke="null" id="svg_251">
       <path stroke="null" id="svg_252" fill="#E2B061" d="m142.76641,225.95387c7.70158,-8.72233 6.41032,-23.16332 -1.22294,-31.94421c-7.63325,-8.78229 -20.11225,-12.26982 -31.6946,-11.16123c-4.77183,0.45599 -9.60223,1.82813 -13.40352,4.74812c2.09308,-6.24438 2.65365,-12.99633 1.61896,-19.50008c-0.24264,-1.52275 -0.5773,-3.04968 -1.26338,-4.42879c-1.49346,-2.99948 -4.70769,-5.06327 -8.05578,-5.17204c-3.34948,-0.10877 -6.6906,1.74307 -8.37371,4.63936c-5.80373,9.98291 -7.42827,20.89314 -3.46801,31.74201c3.42339,9.38051 11.46801,16.1757 19.18075,22.51768c6.60136,5.42722 13.36587,10.94927 21.37702,13.92225c8.00836,2.97159 19.64789,1.04305 25.3052,-5.36308z"/>
      </g>
     </g>
     <g stroke="null" id="svg_253">
      <g stroke="null" id="svg_254">
       <path stroke="null" id="svg_255" fill="#F4EEE4" d="m90.13962,193.63734c1.11417,-0.49922 2.2395,-1.03608 3.118,-1.88252c0.59543,-0.57591 1.057,-1.27453 1.48649,-1.98292c2.59927,-4.28377 4.25309,-9.13648 4.81087,-14.11608c0.42531,-3.7985 0.19383,-7.76573 -1.40282,-11.23793c-1.59665,-3.47359 -4.71745,-6.38103 -8.48108,-7.04479c-1.22154,-0.21614 -2.49887,-0.19243 -3.68415,0.17431c-3.27558,1.01516 -5.20272,4.34094 -6.55952,7.48963c-3.69113,8.57312 -5.51786,17.94247 -5.31288,27.27417c0.05857,2.67457 0.55639,7.47708 4.46505,4.89873c3.68137,-2.43054 7.51054,-1.75423 11.56004,-3.5726z"/>
      </g>
     </g>
     <g stroke="null" id="svg_256">
      <g stroke="null" id="svg_257">
       <path stroke="null" id="svg_258" fill="#2C1417" d="m144.33378,227.33857l-3.13613,-2.76939c6.70734,-7.59421 6.15374,-20.68816 -1.23409,-29.18737c-6.5902,-7.58166 -18.05821,-11.58654 -29.91667,-10.45145c-5.07861,0.48527 -9.22572,1.94108 -12.32978,4.32421l-5.43699,4.1764l2.17954,-6.49956c1.98849,-5.93062 2.51978,-12.32978 1.53669,-18.50444c-0.19383,-1.22015 -0.47272,-2.62716 -1.07094,-3.82639c-1.15322,-2.31759 -3.66463,-3.92958 -6.25135,-4.01464c-2.62158,-0.05996 -5.19853,1.36378 -6.49817,3.60049c-4.83458,8.31514 -6.19557,19.71901 -4.15966,34.86141l-4.14711,0.55778c-2.1642,-16.099 -0.63029,-28.37301 4.68956,-37.52204c2.08332,-3.58096 6.09656,-5.81628 10.25065,-5.67823c4.14432,0.13526 8.01534,2.62018 9.8616,6.33083c0.84922,1.70403 1.21318,3.50009 1.45721,5.0312c0.81436,5.11905 0.69026,10.37476 -0.34583,15.44918c2.86979,-1.27593 6.17047,-2.09726 9.86717,-2.45006c13.37981,-1.28708 25.89645,3.15705 33.47114,11.87101c8.71396,10.02196 9.2578,25.59107 1.21318,34.70105z"/>
      </g>
     </g>
    </g>
    <g stroke="null" id="svg_259">
     <g stroke="null" id="svg_260">
      <g stroke="null" id="svg_261">
       <path stroke="null" id="svg_262" fill="#E2B061" d="m254.3299,196.55733c-15.25814,-10.89489 -49.89226,-22.06588 -62.88859,-3.70368c-3.45825,16.79344 14.29457,17.81697 27.38991,21.86787c5.30033,1.63988 9.44465,5.74516 11.45546,10.9172c3.29231,8.47132 7.59839,9.69845 19.64371,11.73575c28.43297,3.20307 20.41624,-29.99755 4.39951,-40.81714z"/>
      </g>
     </g>
     <g stroke="null" id="svg_263">
      <g stroke="null" id="svg_264">
       <path stroke="null" id="svg_265" fill="#F4EEE4" d="m220.8992,182.20838c-6.62785,8.79763 -10.23113,19.83057 -10.07216,30.84398c-5.71448,-0.83388 -11.6228,-3.07478 -15.36133,-7.47847c-3.73854,-4.4023 -4.74115,-11.43594 -1.12533,-15.93864c1.34426,-1.67474 3.18354,-2.87816 5.07722,-3.89053c6.45633,-3.44989 14.19417,-4.22241 21.4816,-3.53634z"/>
      </g>
     </g>
     <g stroke="null" id="svg_266">
      <g stroke="null" id="svg_267">
       <path stroke="null" id="svg_268" fill="#2C1417" d="m268.8448,234.58695l-3.93237,-1.42513c2.02754,-5.60432 0.05299,-19.86124 -2.71919,-24.58148c-2.27994,-3.87659 -5.44535,-7.46453 -9.15461,-10.37755c-6.67805,-5.24176 -15.38364,-8.90779 -26.6132,-11.20585c-10.45285,-2.14189 -18.46539,-2.01917 -25.21456,0.3779c-2.82656,1.0068 -6.48004,2.90884 -7.82848,6.26111c-1.64128,4.08715 0.84504,8.89663 4.1513,11.53634c3.83615,3.06362 9.08488,4.38975 13.71587,5.5597l9.39585,2.37476c2.77776,0.70141 6.97925,1.76259 9.35959,5.03817l-3.38574,2.45982c-1.37493,-1.89367 -4.09552,-2.70803 -7.00017,-3.44291l-9.39585,-2.37476c-5.04235,-1.27314 -10.75684,-2.7178 -15.30137,-6.34757c-4.37441,-3.49311 -7.93725,-10.10284 -5.42165,-16.36395c1.92853,-4.79693 6.66969,-7.34879 10.30782,-8.64145c7.50078,-2.6676 16.2245,-2.83354 27.45406,-0.53687c11.88077,2.43193 21.15669,6.36291 28.35767,12.01464c4.11644,3.23096 7.63604,7.22607 10.17674,11.54889c3.38435,5.75492 5.53041,21.27243 3.04828,28.12619z"/>
      </g>
     </g>
    </g>
    <g stroke="null" id="svg_269">
     <g stroke="null" id="svg_270">
      <path stroke="null" id="svg_271" fill="#2C1417" d="m225.93319,171.80991c-10.7401,-1.81977 -18.50862,-10.58253 -25.54644,-19.40107l-3.5712,-4.47481l5.61408,1.11975c1.60781,0.31933 3.22956,0.50898 4.8555,0.56894c-5.1567,-5.0298 -7.90099,-12.45947 -6.9165,-19.68415c0.06136,-0.4518 0.22451,-1.65661 1.29127,-2.42775c1.34983,-0.97333 2.86561,-0.39184 3.43734,-0.17431c1.0054,0.38208 2.08471,0.60101 3.17378,0.65261c-0.3277,-0.53268 -0.60798,-1.09465 -0.83388,-1.67753l-1.03329,-2.66202l2.85027,-0.18267c8.75998,-0.56057 18.9423,-1.92853 20.81924,-3.2449l2.40404,3.42339c-2.94509,2.06798 -13.35889,3.22119 -19.28812,3.7218c0.17152,0.14363 0.35001,0.2761 0.53547,0.40021l3.61583,2.40544l-4.13456,1.32752c-2.85306,0.91616 -5.94457,0.91895 -8.79902,0.0251c-0.53129,7.1438 3.4457,14.59578 9.74028,18.02474l5.49695,2.9939l-6.19278,0.91197c-2.17256,0.32072 -4.35628,0.43089 -6.53024,0.34025c5.78978,6.85375 11.89611,12.56684 19.70925,13.89158l-0.69723,4.12201z"/>
     </g>
    </g>
    <g stroke="null" id="svg_272">
     <g stroke="null" id="svg_273">
      <g stroke="null" id="svg_274">
       <path stroke="null" id="svg_275" fill="#F4EEE4" d="m304.83573,69.17931c3.60885,1.91738 5.7103,5.82883 5.28499,9.89227c-0.98449,9.41258 -1.11138,18.92835 0.76416,28.17778c2.31759,11.43175 7.95816,22.50792 17.21178,29.6085c10.42077,7.9986 24.14223,10.17674 37.26824,10.70803c16.39323,0.66376 34.63691,-1.82395 50.63969,-5.44117c0.52153,3.89053 1.10441,5.18319 2.10981,10.49747c-5.91389,-0.70559 -10.45424,0.12411 -16.18267,1.75004c-7.97071,2.2632 -15.94282,4.52641 -23.91353,6.78821c-7.16053,2.03312 -14.44239,4.11922 -20.68816,8.16873c-9.57573,6.20673 -15.8229,16.47829 -19.9993,27.09847c-3.77061,9.58689 -6.12306,20.13037 -3.93795,30.19835c2.18511,10.06798 9.76259,19.44151 19.89471,21.3073c0.18407,1.57574 -0.79066,3.76364 -1.74447,5.03259c-2.69827,3.58794 -6.79658,6.18441 -11.25466,6.71989c-4.45808,0.53547 -9.20481,-1.11975 -12.0983,-4.5529c-0.90919,1.66498 -2.34548,5.11068 -3.61025,7.97629c-0.86735,1.96479 -3.3216,2.64668 -5.06606,1.39446c-5.83162,-4.18895 -11.95328,-10.08053 -17.64406,-13.44674c-3.09709,-1.83232 -8.1743,-0.26634 -10.68154,-2.84887c-2.25344,-2.32177 -2.87397,-9.73888 -4.50409,-12.53338c-12.89733,-22.09935 -25.53389,-45.48159 -27.18075,-71.01549c-1.02911,-15.96513 -0.30957,-32.00138 3.02458,-47.64858c0,0 14.80913,-0.29423 17.34564,-25.28707c0.63587,-6.26111 2.38173,-12.36743 5.07024,-18.05682l0.54802,-1.15879l9.41955,12.45389c0,0 -2.50863,-9.74586 2.10981,-16.21753c1.09883,-1.53809 3.16402,-2.0373 4.83319,-1.14903l2.98135,1.5841z"/>
      </g>
     </g>
     <g stroke="null" id="svg_276">
      <g stroke="null" id="svg_277">
       <path stroke="null" id="svg_278" fill="#F4EEE4" d="m408.05619,110.0829c-3.64929,-6.93882 -7.37249,-13.8846 -12.13038,-20.11504c-4.75789,-6.23043 -10.63413,-11.76364 -17.71239,-15.13404c17.42234,-11.7734 37.95013,-19.89471 58.86001,-22.12305c1.45581,-0.15478 3.04689,-0.25379 4.26285,0.56057c1.37633,0.92174 1.8351,2.72477 1.96618,4.3772c0.40858,5.15809 -1.33589,10.2632 -3.67021,14.88164c-4.39393,8.69583 -10.86003,16.14223 -17.25779,23.48962c-4.16803,4.78717 -10.15025,9.27592 -14.31828,14.06309z"/>
      </g>
     </g>
     <g stroke="null" id="svg_279">
      <g stroke="null" id="svg_280">
       <path stroke="null" id="svg_281" fill="#F4EEE4" d="m406.91134,231.22492c2.34966,-4.46505 4.69095,-8.93289 7.02527,-13.4063c1.81698,-3.48196 3.63674,-6.98483 4.8555,-10.71779c1.60223,-4.9043 2.13352,-10.15583 1.54506,-15.28185c14.35732,4.85131 26.98692,14.09935 39.09638,23.21212c4.57242,3.44012 9.39585,7.22328 11.16123,12.66585c-3.67439,4.24751 -9.7361,5.35053 -15.32089,5.94317c-15.68066,1.66638 -32.75439,-0.17012 -48.36254,-2.4152z"/>
      </g>
     </g>
     <g stroke="null" id="svg_282">
      <g stroke="null" id="svg_283">
       <g stroke="null" id="svg_284">
        <g stroke="null" id="svg_285">
         <g stroke="null" id="svg_286">
          <path stroke="null" id="svg_287" fill="#2C1417" d="m351.13587,129.82283c-0.34722,0.19383 -8.58846,4.71605 -15.44779,2.16699c-3.27,-1.21457 -5.63779,-3.7734 -7.03782,-7.60118c-1.39725,-3.8236 -1.26198,-7.36552 0.40439,-10.52396c3.47917,-6.59717 12.44831,-8.95102 12.829,-9.04723l0.91895,3.60467c-0.0753,0.01952 -7.76573,2.05682 -10.464,7.18842c-1.16577,2.21719 -1.22852,4.67003 -0.19522,7.49939c1.02214,2.79728 2.60484,4.55987 4.83876,5.39097c4.37162,1.62454 10.3901,-0.84225 12.33955,-1.92993l1.81419,3.25187z"/>
         </g>
        </g>
       </g>
      </g>
      <g stroke="null" id="svg_288">
       <g stroke="null" id="svg_289">
        <g stroke="null" id="svg_290">
         <g stroke="null" id="svg_291">
          <path stroke="null" id="svg_292" fill="#2C1417" d="m371.39453,219.96607c-0.39184,0.06275 -9.68589,1.48231 -15.25257,-3.26721c-2.65505,-2.2632 -4.0007,-5.47882 -4.0007,-9.55482c0,-4.07181 1.34286,-7.35018 3.99233,-9.74586c5.5332,-5.00192 14.76451,-4.13456 15.15495,-4.09412l-0.37371,3.70228c-0.0767,-0.00697 -8,-0.73348 -12.29492,3.16123c-1.85602,1.68311 -2.75684,3.96444 -2.75684,6.97786c0,2.97716 0.8813,5.17762 2.69409,6.72407c3.54889,3.02597 10.04706,2.77497 12.25169,2.42357l0.58567,3.673z"/>
         </g>
        </g>
       </g>
      </g>
      <g stroke="null" id="svg_293">
       <g stroke="null" id="svg_294">
        <g stroke="null" id="svg_295">
         <g stroke="null" id="svg_296">
          <path stroke="null" id="svg_297" fill="#2C1417" d="m337.98753,183.91937c0,0 0,0 0,0c-4.50131,1.05003 -9.01795,-1.75702 -10.06798,-6.25832c-1.05003,-4.50131 1.75702,-9.01795 6.25832,-10.06937c0,0 0,0 0,0l-0.90221,-3.86962c0,0 0,0 0,0c-4.50131,1.05003 -9.01795,-1.75702 -10.06798,-6.25972c-1.05003,-4.50131 1.75702,-9.01795 6.25972,-10.06798c0,0 0,0 0,0l-0.90221,-3.86962c0,0 0,0 0,0c-6.63482,1.54785 -10.77357,8.20498 -9.22572,14.83981c0.98728,4.23218 4.05647,7.43943 7.86752,8.81157c-2.81122,2.9186 -4.14293,7.15356 -3.15705,11.38434c1.54785,6.63482 8.20498,10.77357 14.83981,9.22572c0,0 0,0 0,0l-0.90221,-3.86683z"/>
         </g>
        </g>
       </g>
       <g stroke="null" id="svg_298">
        <g stroke="null" id="svg_299">
         <g stroke="null" id="svg_300">
          <path stroke="null" id="svg_301" fill="#2C1417" d="m341.30913,174.70202c-3.7232,0.86875 -7.8996,-3.38713 -9.32752,-9.5074c-1.42792,-6.11888 0.43368,-11.78455 4.15827,-12.6533c3.7232,-0.86875 7.8996,3.38713 9.32752,9.5074c1.42653,6.12027 -0.43368,11.78455 -4.15827,12.6533z"/>
         </g>
        </g>
        <g stroke="null" id="svg_302">
         <g stroke="null" id="svg_303">
          <path stroke="null" id="svg_304" fill="#F6F3F4" d="m340.61051,170.71248c-0.90082,0.03207 -1.68032,-1.32334 -1.74168,-3.02737c-0.05996,-1.70403 0.62053,-3.11103 1.52275,-3.1431c0.90082,-0.03207 1.68032,1.32334 1.74168,3.02737c0.05996,1.70403 -0.62193,3.11103 -1.52275,3.1431z"/>
         </g>
        </g>
       </g>
      </g>
      <g stroke="null" id="svg_305">
       <g stroke="null" id="svg_306">
        <g stroke="null" id="svg_307">
         <path stroke="null" id="svg_308" fill="#E79D75" d="m318.42052,142.50401c-5.97525,1.39446 -12.50967,-4.72302 -14.59578,-13.66428c-2.08611,-8.93986 1.06815,-17.31776 7.0434,-18.71221c5.97525,-1.39446 12.50967,4.72302 14.59578,13.66428c2.08611,8.94126 -1.06676,17.31915 -7.0434,18.71221z"/>
        </g>
       </g>
      </g>
      <g stroke="null" id="svg_309">
       <g stroke="null" id="svg_310">
        <g stroke="null" id="svg_311">
         <path stroke="null" id="svg_312" fill="#E79D75" d="m339.77104,225.19808c-6.11469,0.50061 -11.68136,-6.50932 -12.43019,-15.65975c-0.75022,-9.14903 3.59909,-16.97332 9.71518,-17.47393s11.68136,6.50932 12.43019,15.65975c0.75022,9.14903 -3.59909,16.97332 -9.71518,17.47393z"/>
        </g>
       </g>
      </g>
     </g>
     <g stroke="null" id="svg_313">
      <g stroke="null" id="svg_314">
       <path stroke="null" id="svg_315" fill="#F4EEE4" d="m377.20105,99.51292c-1.54366,3.42339 -8.14363,3.78595 -14.74219,0.81157c-6.59857,-2.97577 -10.69688,-8.16175 -9.15461,-11.58375s8.14363,-3.78595 14.74219,-0.81157c6.59857,2.97438 10.69688,8.16036 9.15461,11.58375z"/>
      </g>
     </g>
     <g stroke="null" id="svg_316">
      <g stroke="null" id="svg_317">
       <path stroke="null" id="svg_318" fill="#F4EEE4" d="m393.29586,219.81547c-3.75248,0.13387 -7.00157,-5.62245 -7.25954,-12.85689c-0.25658,-7.23444 2.57696,-13.2069 6.32804,-13.33937s7.00296,5.62245 7.25954,12.85689c0.25797,7.23444 -2.57556,13.2069 -6.32804,13.33937z"/>
      </g>
     </g>
    </g>
    <g stroke="null" id="svg_319">
     <path stroke="null" id="svg_320" fill="#E2B061" d="m385.32236,79.19708l13.76607,-3.13055l-3.16263,13.89994l10.32874,0l-2.96601,11.33135c0,0.00139 -15.94561,-4.85968 -17.96618,-22.10074z"/>
    </g>
    <g stroke="null" id="svg_321">
     <path stroke="null" id="svg_322" fill="#E2B061" d="m419.2704,199.32393c0,0 7.02946,4.91546 12.35907,13.72842l-15.70019,-2.7178l3.59073,9.87694l-12.60868,0l12.35907,-20.88756z"/>
    </g>
    <g stroke="null" id="svg_323">
     <path stroke="null" id="svg_324" fill="#2C1417" d="m289.84671,223.60839c-0.81994,-0.70699 -20.05926,-17.92016 -20.77601,-69.3784l4.18337,-0.05717c0.68747,49.34424 19.14868,66.11258 19.33414,66.27573l-2.7415,3.15984z"/>
    </g>
    <g stroke="null" id="svg_325">
     <path stroke="null" id="svg_326" fill="#2C1417" d="m32.02286,236.49457c-0.15897,-2.42078 0.61635,-4.5278 2.24368,-6.09238c2.97716,-2.86282 8.10876,-3.29371 11.12358,-3.25048c0.29423,-4.81366 2.11818,-8.50758 5.43699,-10.99808c9.4084,-7.05874 27.47916,-1.26198 28.24332,-1.01238l-1.29963,3.97699c-0.16594,-0.05438 -16.77113,-5.37284 -24.43785,0.38487c-2.70106,2.02893 -3.94073,5.22642 -3.79153,9.77793l0.07948,2.39428l-2.38592,-0.24542c-2.01081,-0.20917 -7.74342,-0.25379 -10.07216,1.99128c-0.73767,0.71117 -1.04445,1.59944 -0.96636,2.79867l-4.17361,0.27471z"/>
    </g>
   </g>
   <g stroke="null" id="svg_327">
    <g stroke="null" id="svg_328">
     <g stroke="null" id="svg_329">
      <path stroke="null" id="svg_330" fill="#F6F3F4" d="m253.94282,48.70475c1.07373,-4.67422 -0.96775,-9.67613 -5.02841,-12.22799c-4.19592,-2.63692 -9.21039,-2.22555 -12.83318,0.36395c-0.44065,-4.25728 -3.24072,-8.14641 -7.68067,-9.68311c-4.07181,-1.4098 -8.6777,-0.2761 -11.76921,2.72616c-1.79606,1.74447 -2.75126,3.74412 -3.17797,5.77863c-2.47516,8.89245 3.62698,24.04322 6.99041,31.36412c1.09465,2.38173 3.89332,3.42757 6.27645,2.33432c6.82726,-3.13055 19.95746,-9.6594 24.50478,-15.4701c1.27314,-1.39167 2.24507,-3.12777 2.7178,-5.18598z"/>
     </g>
    </g>
    <g stroke="null" id="svg_331">
     <g stroke="null" id="svg_332">
      <path stroke="null" id="svg_333" fill="#F6F3F4" d="m46.05749,146.17095c-2.40962,-4.14711 -7.31671,-6.40474 -12.02579,-5.49416c-4.86526,0.94126 -8.24542,4.66725 -9.12253,9.03329c-3.23096,-2.80844 -7.93167,-3.73435 -12.22381,-1.82534c-3.93655,1.75144 -6.52466,5.72703 -6.73244,10.03033c-0.11992,2.50165 0.54942,4.61426 1.62733,6.39079c4.26704,8.18407 19.07338,15.08105 26.53093,18.12933c2.42635,0.99146 5.18459,-0.15757 6.17884,-2.58253c2.84748,-6.94997 7.9749,-20.68816 7.32787,-28.03834c-0.02371,-1.88531 -0.49922,-3.81663 -1.5604,-5.64337z"/>
     </g>
    </g>
    <g stroke="null" id="svg_334">
     <g stroke="null" id="svg_335">
      <path stroke="null" id="svg_336" fill="#F6F3F4" d="m498.02455,168.5464c1.26338,-4.62681 -0.57173,-9.70681 -4.52501,-12.42321c-4.08436,-2.80565 -9.11138,-2.59927 -12.83737,-0.16036c-0.26634,-4.27261 -2.90605,-8.27192 -7.27767,-9.98849c-4.01046,-1.57434 -8.65957,-0.63029 -11.87101,2.24229c-1.86718,1.66916 -2.90186,3.62838 -3.41224,5.64476c-2.83632,8.78368 2.6425,24.17151 5.70333,31.62348c0.99564,2.42357 3.75109,3.58375 6.17605,2.58951c6.94858,-2.84887 20.33536,-8.83667 25.11695,-14.45494c1.32892,-1.34286 2.37058,-3.03573 2.92696,-5.07303z"/>
     </g>
    </g>
   </g>
  </g>
 </g>
</svg>