<svg width="400" height="500.00000000000006" xmlns="http://www.w3.org/2000/svg">

 <g>
  <title>background</title>
  <rect fill="none" id="canvas_background" height="502" width="402" y="-1" x="-1"/>
 </g>
 <g>
  <title>Layer 1</title>
  <g id="OBJECTS">
   <g stroke="null" id="svg_3">
    <g stroke="null" id="svg_4">
     <path stroke="null" id="svg_5" fill="#E2B061" d="m93.78614,371.22576c0,0 -42.38483,-7.48932 -41.45031,-64.40625c0,0 -54.22643,-11.11434 -36.90962,47.76206c0,0 -3.20675,25.84615 18.59989,24.08263c0,0 -7.15772,36.16351 28.49144,30.98976l31.26861,-38.42821z"/>
    </g>
    <g stroke="null" id="svg_6">
     <g stroke="null" id="svg_7">
      <g stroke="null" id="svg_8">
       <path stroke="null" id="svg_9" fill="#E2B061" d="m274.23631,370.3911l0,102.60648c0,0 6.26842,8.74413 43.76965,6.36639c34.29071,-2.17426 0.50306,-25.11701 0.50306,-25.11701l-2.60383,-83.85587l-41.66887,0z"/>
      </g>
     </g>
     <g stroke="null" id="svg_10">
      <g stroke="null" id="svg_11">
       <path stroke="null" id="svg_12" fill="#F4EEE4" d="m274.23631,462.28267c0,0 19.81513,-11.52319 41.13378,-8.68007c3.53458,0.47103 6.85814,1.98773 9.52038,4.35982c7.96034,7.09177 22.20229,23.16507 -12.45205,23.04637c0,0 -23.27058,2.54166 -38.20211,-7.04278l0,-11.68334z"/>
      </g>
     </g>
    </g>
    <g stroke="null" id="svg_13">
     <g stroke="null" id="svg_14">
      <path stroke="null" id="svg_15" fill="#E2B061" d="m340.38535,296.35331c7.41961,-23.96959 40.27275,-41.84974 27.48909,-69.37087c47.129,-10.26837 -19.93195,-23.86031 -18.58858,-81.19551c-0.79698,-24.14104 2.21948,-133.41913 -18.97671,-141.18542c-31.03875,-2.49267 -68.05576,69.5442 -80.64158,94.74034c-23.63233,-1.13046 -48.86238,2.92413 -71.22671,10.64519c-35.41741,-25.33745 -74.73114,-56.61171 -119.41458,-53.4238c-25.89891,16.13736 30.56207,117.6586 47.64525,135.37672c2.94297,25.45049 6.24769,48.98485 -8.06397,77.00714c-5.9387,11.62681 5.55434,14.6979 14.55094,10.94477c-6.14407,30.0722 16.57636,15.88677 24.79294,23.16507c-22.0478,16.04881 -33.87621,42.91803 -44.16719,68.17069c-25.36382,-2.13846 -34.29637,32.15602 -30.66758,52.16522c3.36124,16.28432 15.7417,28.96435 27.56446,40.65334c-18.4209,-7.33671 -21.4317,22.36621 -1.33583,22.21548c125.05936,3.17095 190.142,14.05542 236.88288,-128.04943c-0.32595,5.0739 0.53885,9.29429 1.56946,14.27398c17.17739,-17.90277 24.38409,-53.72337 12.58771,-76.13292z"/>
     </g>
    </g>
    <g stroke="null" id="svg_16">
     <g stroke="null" id="svg_17">
      <path stroke="null" id="svg_18" fill="#F4EEE4" d="m93.0325,461.48004c0,0 -19.48541,-3.13138 -18.72235,13.01917c0.76306,16.14866 18.67713,13.28859 18.67713,13.28859l24.46322,0c0.00188,0 -10.12895,-26.95212 -24.418,-26.30776z"/>
     </g>
    </g>
    <g stroke="null" id="svg_19">
     <g stroke="null" id="svg_20">
      <g stroke="null" id="svg_21">
       <path stroke="null" id="svg_22" fill="#F4EEE4" d="m340.38535,298.23741c5.05129,-10.82418 11.51188,-20.99081 19.16512,-30.16264c3.63632,-4.35794 7.58918,-10.44736 10.0875,-15.54198c3.80024,-7.75309 3.77763,-17.27159 -0.06218,-25.00773c4.74606,-1.26047 9.37908,-2.94486 13.82556,-5.02679c1.6712,-0.7819 3.53835,-1.93309 3.67589,-3.77386c0.09986,-1.33395 -0.77437,-2.5247 -1.61845,-3.56473c-1.88034,-2.32122 -3.8285,-4.5878 -5.80116,-6.83365c-31.32325,13.55237 -151.4877,54.7747 -155.71752,-108.27387c-6.54727,0.64436 -13.09641,1.61845 -19.55701,2.91094c0.0113,0.03391 65.59512,184.71013 -101.17268,155.46505l-0.05275,0.0471c-1.4338,3.54965 -3.14834,6.97873 -5.26042,10.19301c-1.2925,1.96701 -2.76963,4.0188 -2.77529,6.37204c-0.00754,3.29907 3.03718,5.96319 6.259,6.67727c3.21994,0.71219 6.56422,-0.05464 9.77285,-0.8177c-2.73384,7.25757 -1.13046,17.40348 6.2345,19.83774c6.3532,2.10078 14.7582,-2.25904 19.32527,2.63398c0.00565,0.00188 79.8333,53.70265 203.67176,-5.13419z"/>
      </g>
     </g>
     <g stroke="null" id="svg_23">
      <g stroke="null" id="svg_24">
       <path stroke="null" id="svg_25" fill="#F4EEE4" d="m107.96403,168.07024c0,0 -23.84147,-15.05777 -37.53326,-78.56718c-1.16815,-5.41492 3.2482,-10.44548 8.76109,-9.90286c16.14678,1.59018 47.2835,8.40499 71.82774,36.38584c0.00188,-0.00188 -32.63835,15.97156 -43.05557,52.0842z"/>
      </g>
     </g>
     <g stroke="null" id="svg_26">
      <g stroke="null" id="svg_27">
       <path stroke="null" id="svg_28" fill="#F4EEE4" d="m269.99895,102.66165c0,0 -1.90671,-31.52296 45.86477,-68.86216c4.07344,-3.18414 10.09504,-1.52236 11.88117,3.32921c5.23216,14.20804 17.03231,48.50629 3.51574,80.50593c0,0 -26.694,-20.91545 -61.26168,-14.97298z"/>
      </g>
     </g>
     <g stroke="null" id="svg_29">
      <g stroke="null" id="svg_30">
       <g stroke="null" id="svg_31">
        <path stroke="null" id="svg_32" fill="#F4EEE4" d="m175.9237,181.07434c2.53601,4.39373 -2.27411,11.91885 -10.74317,16.80999c-8.47094,4.89114 -17.39217,5.29245 -19.93006,0.89872c-2.53601,-4.39373 2.27411,-11.91885 10.74317,-16.80999c8.47094,-4.88925 17.39406,-5.29245 19.93006,-0.89872z"/>
       </g>
      </g>
      <g stroke="null" id="svg_33">
       <g stroke="null" id="svg_34">
        <path stroke="null" id="svg_35" fill="#F4EEE4" d="m323.57537,175.34854c-2.0857,4.62548 -11.00317,5.11535 -19.91876,1.09655c-8.91559,-4.0188 -14.45297,-11.02767 -12.36915,-15.65126c2.0857,-4.62548 11.00317,-5.11535 19.91876,-1.09655c8.91559,4.0188 14.45297,11.02578 12.36915,15.65126z"/>
       </g>
      </g>
      <g stroke="null" id="svg_36">
       <g stroke="null" id="svg_37">
        <g stroke="null" id="svg_38">
         <ellipse stroke="null" id="svg_39" fill="#E79D75" ry="8.335" rx="12.47" cy="327.698" cx="125.40355" transform="matrix(1.848872331569406,-0.3626902311496083,0.3626902311496083,1.848872331569406,-171.48935448692004,-303.7334038108131) "/>
        </g>
       </g>
      </g>
      <g stroke="null" id="svg_40">
       <g stroke="null" id="svg_41">
        <g stroke="null" id="svg_42">
         <path stroke="null" id="svg_43" fill="#E79D75" d="m338.35429,225.44878c1.66932,8.5105 -7.30091,17.43551 -20.03369,19.93195c-12.73278,2.49832 -24.40858,-2.37774 -26.0779,-10.88824c-1.66932,-8.5105 7.30091,-17.43362 20.03369,-19.93195c12.73278,-2.49644 24.40858,2.37774 26.0779,10.88824z"/>
        </g>
       </g>
      </g>
      <g stroke="null" id="svg_44">
       <g stroke="null" id="svg_45">
        <g stroke="null" id="svg_46">
         <g stroke="null" id="svg_47">
          <g stroke="null" id="svg_48">
           <circle stroke="null" id="svg_49" fill="#2C1417" r="16.32954" cy="221.26041" cx="176.27791"/>
          </g>
         </g>
        </g>
        <g stroke="null" id="svg_50">
         <g stroke="null" id="svg_51">
          <g stroke="null" id="svg_52">
           <path stroke="null" id="svg_53" fill="#F6F3F4" d="m182.14125,215.39708c0,3.23689 -2.62456,5.86145 -5.86145,5.86145c-3.23689,0 -5.86145,-2.62456 -5.86145,-5.86145c0,-3.23689 2.62456,-5.86145 5.86145,-5.86145c3.23689,0 5.86145,2.62456 5.86145,5.86145z"/>
          </g>
         </g>
        </g>
        <g stroke="null" id="svg_54">
         <g stroke="null" id="svg_55">
          <g stroke="null" id="svg_56">
           <path stroke="null" id="svg_57" fill="#F6F3F4" d="m182.14125,226.98244c0,1.61845 -1.31134,2.93167 -2.93167,2.93167c-1.61845,0 -2.93167,-1.31322 -2.93167,-2.93167c0,-1.61845 1.31322,-2.93167 2.93167,-2.93167c1.61845,0 2.93167,1.31322 2.93167,2.93167z"/>
          </g>
         </g>
        </g>
       </g>
       <g stroke="null" id="svg_58">
        <g stroke="null" id="svg_59">
         <g stroke="null" id="svg_60">
          <g stroke="null" id="svg_61">
           <circle stroke="null" id="svg_62" fill="#2C1417" r="16.32954" cy="199.11464" cx="301.56902"/>
          </g>
         </g>
        </g>
        <g stroke="null" id="svg_63">
         <g stroke="null" id="svg_64">
          <g stroke="null" id="svg_65">
           <path stroke="null" id="svg_66" fill="#F6F3F4" d="m307.43047,193.25319c0,3.23689 -2.62456,5.86145 -5.86145,5.86145c-3.23689,0 -5.86145,-2.62456 -5.86145,-5.86145c0,-3.23689 2.62456,-5.86145 5.86145,-5.86145c3.23689,-0.00188 5.86145,2.62267 5.86145,5.86145z"/>
          </g>
         </g>
        </g>
        <g stroke="null" id="svg_67">
         <g stroke="null" id="svg_68">
          <g stroke="null" id="svg_69">
           <circle stroke="null" id="svg_70" fill="#F6F3F4" r="2.93167" cy="204.83667" cx="304.50069"/>
          </g>
         </g>
        </g>
       </g>
       <g stroke="null" id="svg_71">
        <g stroke="null" id="svg_72">
         <g stroke="null" id="svg_73">
          <g stroke="null" id="svg_74">
           <path stroke="null" id="svg_75" fill="#2C1417" d="m270.11765,228.83075c0.00188,0 0.00188,0 0,0c1.42627,7.27076 -3.32733,14.34369 -10.59809,15.76996c-7.26888,1.42627 -14.34558,-3.32733 -15.76996,-10.59809c0,0 0,0 0,0l-6.24769,1.22655c0,0 0,0 0,0c1.42627,7.26888 -3.32921,14.34369 -10.59809,15.76996c-7.27076,1.42627 -14.34369,-3.32733 -15.76996,-10.59809c0,0 0,0 0,0l-6.24769,1.22467c0,0 0,0 0,0c2.10078,10.71491 12.52741,17.72189 23.2442,15.62112c6.83365,-1.34148 12.14494,-6.07247 14.56225,-12.10161c4.51432,4.66881 11.22173,7.04278 18.05538,5.70319c10.71491,-2.10266 17.72189,-12.5293 15.62112,-23.2442c0,0 0,0 0,0l-6.25146,1.22655z"/>
          </g>
         </g>
        </g>
        <g stroke="null" id="svg_76">
         <g stroke="null" id="svg_77">
          <g stroke="null" id="svg_78">
           <path stroke="null" id="svg_79" fill="#2C1417" d="m255.5441,222.98437c1.17945,6.01406 -5.87464,12.45959 -15.75677,14.39833c-9.88213,1.93874 -18.85047,-1.36598 -20.02804,-7.37816c-1.17945,-6.01406 5.87464,-12.45959 15.75677,-14.39833c9.88213,-1.93874 18.84859,1.36409 20.02804,7.37816z"/>
          </g>
         </g>
         <g stroke="null" id="svg_80">
          <g stroke="null" id="svg_81">
           <path stroke="null" id="svg_82" fill="#F6F3F4" d="m249.11365,223.87555c0,1.44511 -2.21571,2.61702 -4.94766,2.61702c-2.73195,0 -4.94766,-1.17191 -4.94766,-2.61702c0,-1.44511 2.21571,-2.61702 4.94766,-2.61702c2.73384,0.00188 4.94766,1.17191 4.94766,2.61702z"/>
          </g>
         </g>
        </g>
       </g>
      </g>
     </g>
     <g stroke="null" id="svg_83">
      <g stroke="null" id="svg_84">
       <path stroke="null" id="svg_85" fill="#E2B061" d="m117.97616,146.36724l-7.34424,-22.55274l16.11475,11.27637l0,-11.27637l7.48932,3.93778c-0.00188,0 7.64005,19.13686 -16.25983,18.61496z"/>
      </g>
     </g>
     <g stroke="null" id="svg_86">
      <g stroke="null" id="svg_87">
       <path stroke="null" id="svg_88" fill="#E2B061" d="m289.44292,103.50573l15.8604,-17.63711l-1.70888,19.59469l9.76532,-5.63913l0.33349,8.45398c0.00188,0 -12.74974,16.18635 -24.25032,-4.77244z"/>
      </g>
     </g>
    </g>
    <g stroke="null" id="svg_89">
     <g stroke="null" id="svg_90">
      <path stroke="null" id="svg_91" fill="#F4EEE4" d="m136.71924,303.37348c0,0 -30.83715,41.7838 8.7479,48.72861c39.58505,6.94481 106.36339,25.05483 108.15517,67.34168l2.08947,49.32964c0,0 58.04551,-29.08305 70.52017,-104.90697l0.93828,12.43321c0,0 33.5578,-34.56202 14.33804,-82.28829c0,0 -103.11707,-17.14347 -204.78904,9.36212z"/>
     </g>
    </g>
    <g stroke="null" id="svg_92">
     <g stroke="null" id="svg_93">
      <g stroke="null" id="svg_94">
       <path stroke="null" id="svg_95" fill="#E2B061" d="m211.43908,407.31202l0,80.21012c0,0 5.72956,10.29663 43.23079,7.91889c34.29071,-2.17426 1.04191,-26.66951 1.04191,-26.66951l-2.60383,-61.45951l-41.66887,0z"/>
      </g>
     </g>
     <g stroke="null" id="svg_96">
      <g stroke="null" id="svg_97">
       <path stroke="null" id="svg_98" fill="#F4EEE4" d="m211.43908,475.47706c0,0 20.98516,-11.31594 44.2727,-4.85534c0,0 38.3811,25.25643 -6.07059,25.09063c0,0 -23.27058,2.74703 -38.20211,-7.61178l0,-12.6235z"/>
      </g>
     </g>
    </g>
    <g stroke="null" id="svg_99">
     <rect stroke="null" id="svg_100" fill="#2C1417" height="37.954" width="3" transform="matrix(1.8780759605710629,-0.15016317622142225,0.15016317622142225,1.8780759605710629,-151.07243801507784,-338.6270302050507) " y="410.44842" x="107.13098"/>
    </g>
    <g stroke="null" id="svg_101">
     <path stroke="null" id="svg_102" fill="#2C1417" d="m248.49189,499.26389c-11.94711,0 -25.29976,-2.146 -32.90778,-5.26042c-4.23547,-1.73526 -6.97119,-5.82188 -6.97119,-10.4078l0,-76.28365l5.65232,0l0,76.28176c0,2.28354 1.35844,4.31648 3.4611,5.1794c12.69698,5.19825 41.85351,6.96177 49.29007,1.54685c1.34902,-0.9835 1.29061,-1.75222 1.26235,-2.11962c-0.88553,-11.51942 -13.14917,-14.80907 -13.27164,-14.84298l-2.03295,-0.5219l-2.6905,-65.40859l5.64666,-0.23174l2.5247,61.36342c4.42576,1.69193 14.51326,6.8751 15.45908,19.20657c0.15073,1.95382 -0.34668,4.77621 -3.57038,7.12192c-4.25054,3.09935 -12.63292,4.37678 -21.85185,4.37678z"/>
    </g>
    <g stroke="null" id="svg_103">
     <path stroke="null" id="svg_104" fill="#2C1417" d="m236.51652,312.69227c-11.35739,0 -23.72654,-1.33771 -36.82295,-4.74983l1.42438,-5.46956c57.1694,14.89573 101.14818,-12.02436 101.58529,-12.29755l2.99761,4.79316c-1.46018,0.91191 -28.93609,17.72378 -69.18434,17.72378z"/>
    </g>
    <g stroke="null" id="svg_105">
     <path stroke="null" id="svg_106" fill="#2C1417" d="m53.83558,413.1584c-2.50021,0 -5.18129,-0.48233 -7.83411,-1.8012c-7.81527,-3.89068 -12.67814,-13.72571 -14.47181,-29.25262c-2.29296,0.22798 -5.4055,0.02449 -8.53311,-1.80497c-5.70319,-3.34052 -9.25096,-10.70737 -10.54157,-21.90084l5.61652,-0.64813c1.06075,9.20009 3.75314,15.31212 7.78135,17.66914c3.49313,2.04425 7.04844,0.65378 7.08235,0.6406l3.5798,-1.49975l0.32783,3.86807c1.27554,15.03893 5.30187,24.66859 11.64377,27.85273c5.19825,2.61137 10.98433,0.37117 13.34512,-0.78002c1.17191,-7.21989 7.60236,-37.59732 32.01471,-37.09803l-0.12247,5.65043c-0.15638,-0.00188 -0.31276,-0.00377 -0.46726,-0.00377c-21.68793,0 -25.98746,33.26953 -26.02891,33.60678l-0.16203,1.33206l-1.13612,0.71596c-0.30146,0.18841 -5.58072,3.4498 -12.09407,3.45356z"/>
    </g>
   </g>
  </g>
 </g>
</svg>