<svg xmlns="http://www.w3.org/2000/svg" version="1.1" xmlns:xlink="http://www.w3.org/1999/xlink" xmlns:svgjs="http://svgjs.dev/svgjs" width="2000" height="308" viewBox="0 0 2000 308"><g transform="matrix(1,0,0,1,-1.2121212121212466,-1.1273627572989824)"><svg viewBox="0 0 396 61" data-background-color="#ffffff" preserveAspectRatio="xMidYMid meet" height="308" width="2000" xmlns="http://www.w3.org/2000/svg" xmlns:xlink="http://www.w3.org/1999/xlink"><g id="tight-bounds" transform="matrix(1,0,0,1,0.2400000000000091,0.2232763902442798)"><svg viewBox="0 0 395.52 60.55344721951141" height="60.55344721951141" width="395.52"><g><svg viewBox="0 0 475.85996064182956 72.85336016030493" height="60.55344721951141" width="395.52"><g transform="matrix(1,0,0,1,80.33996064182958,20.570344659515385)"><svg viewBox="0 0 395.52 31.712670841274164" height="31.712670841274164" width="395.52"><g id="textblocktransform"><svg viewBox="0 0 395.52 31.712670841274164" height="31.712670841274164" width="395.52" id="textblock"><g><svg viewBox="0 0 395.52 31.712670841274164" height="31.712670841274164" width="395.52"><g transform="matrix(1,0,0,1,0,0)"><svg width="395.52" viewBox="4 -29.45 367.27 29.45" height="31.712670841274164" data-palette-color="#1f5d6d"><path d="M14.25 0L4.5 0 4.5-25.4 4-29.45 27.15-29.45Q30.5-29.45 32.52-28.73 34.55-28 35.58-26.78 36.6-25.55 36.93-23.93 37.25-22.3 37.25-20.5L37.25-20.5 37.25-16.55Q37.25-14.15 36.48-12.13 35.7-10.1 33.63-8.88 31.55-7.65 27.65-7.65L27.65-7.65 24.2-7.65Q21.05-7.65 18.32-7.8 15.6-7.95 14.25-8.05L14.25-8.05 14.25 0ZM14.25-22.55L14.25-14.45 24.6-14.45Q26.25-14.45 26.9-15.1 27.55-15.75 27.55-17.2L27.55-17.2 27.55-19.75Q27.55-21.2 26.95-21.88 26.35-22.55 24.65-22.55L24.65-22.55 14.25-22.55ZM61.55 0L50.9 0Q47.6 0 45.82-0.95 44.05-1.9 43.4-3.58 42.75-5.25 42.75-7.45L42.75-7.45 42.75-15Q42.75-17 43.42-18.68 44.1-20.35 45.85-21.38 47.6-22.4 50.9-22.4L50.9-22.4 61.25-22.4Q65.15-22.4 67.22-21.48 69.3-20.55 70.07-18.88 70.85-17.2 70.85-15L70.85-15 70.85-8.6 62.1-8.6Q57.6-8.6 55.27-8.8 52.95-9 52-9.05L52-9.05 52-8.3Q51.95-6.3 54.4-6.3L54.4-6.3 55.95-6.3Q59.95-6.3 63.35-6.48 66.75-6.65 68.4-6.8L68.4-6.8 71.4-2.05Q71.4-1.55 70.55-1.1 69.7-0.65 67.57-0.33 65.45 0 61.55 0L61.55 0ZM52-14.1L52-13.4 61.6-13.4 61.6-14.1Q61.6-15.1 61.42-15.5 61.25-15.9 60.35-16 59.45-16.1 57.3-16.1L57.3-16.1 54.4-16.1Q52-16.1 52-14.1L52-14.1ZM88.2 0L85.1 0Q81.3 0 79.9-1.6 78.5-3.2 78.5-6.4L78.5-6.4 78.5-16.1 74.4-16.1 74.4-22.4 76.5-22.4Q77.35-22.4 77.87-22.73 78.4-23.05 78.55-23.9L78.55-23.9 79.5-29.25 87.7-29.25 87.7-22.4 96.05-22.4 96.05-16.1 87.7-16.1 87.7-8.35Q87.7-7.1 88.3-6.7 88.9-6.3 90.1-6.3L90.1-6.3 95.1-6.3 96.1-0.5Q95.05-0.35 92.9-0.18 90.75 0 88.2 0L88.2 0ZM111.34 0L101.59 0 101.59-25.4 101.09-29.45 124.24-29.45Q127.59-29.45 129.62-28.73 131.64-28 132.67-26.78 133.69-25.55 134.02-23.93 134.34-22.3 134.34-20.5L134.34-20.5 134.34-16.55Q134.34-14.15 133.57-12.13 132.79-10.1 130.72-8.88 128.64-7.65 124.74-7.65L124.74-7.65 121.29-7.65Q118.14-7.65 115.42-7.8 112.69-7.95 111.34-8.05L111.34-8.05 111.34 0ZM111.34-22.55L111.34-14.45 121.69-14.45Q123.34-14.45 123.99-15.1 124.64-15.75 124.64-17.2L124.64-17.2 124.64-19.75Q124.64-21.2 124.04-21.88 123.44-22.55 121.74-22.55L121.74-22.55 111.34-22.55ZM149.44 0L140.34 0 140.34-22.4 147.44-22.4 149.34-21.4Q151.64-22.9 155.44-22.9L155.44-22.9Q157.94-22.9 159.84-22.38 161.74-21.85 162.92-21.25 164.09-20.65 164.39-20.4L164.39-20.4 161.89-13.9Q161.39-14.25 160.02-14.85 158.64-15.45 156.79-15.98 154.94-16.5 152.89-16.5L152.89-16.5 152.34-16.5Q150.94-16.5 150.19-16.03 149.44-15.55 149.44-13.95L149.44-13.95 149.44 0ZM188.94 0L175.04 0Q171.74 0 170.09-0.95 168.44-1.9 167.91-3.58 167.39-5.25 167.39-7.45L167.39-7.45 167.39-15Q167.39-17.1 167.94-18.78 168.49-20.45 170.11-21.43 171.74-22.4 175.04-22.4L175.04-22.4 188.94-22.4Q192.24-22.4 193.86-21.43 195.49-20.45 196.01-18.78 196.54-17.1 196.54-15L196.54-15 196.54-7.45Q196.54-5.25 196.01-3.58 195.49-1.9 193.86-0.95 192.24 0 188.94 0L188.94 0ZM179.04-6.3L179.04-6.3 184.99-6.3Q187.39-6.3 187.34-8.3L187.34-8.3 187.34-14.1Q187.34-15.1 186.81-15.6 186.29-16.1 184.99-16.1L184.99-16.1 179.09-16.1Q177.79-16.1 177.24-15.6 176.69-15.1 176.69-14.1L176.69-14.1 176.69-8.3Q176.64-6.3 179.04-6.3ZM213.84 0L210.74 0Q206.94 0 205.54-1.6 204.14-3.2 204.14-6.4L204.14-6.4 204.14-16.1 200.04-16.1 200.04-22.4 202.14-22.4Q202.99-22.4 203.51-22.73 204.04-23.05 204.19-23.9L204.19-23.9 205.14-29.25 213.34-29.25 213.34-22.4 221.69-22.4 221.69-16.1 213.34-16.1 213.34-8.35Q213.34-7.1 213.94-6.7 214.54-6.3 215.74-6.3L215.74-6.3 220.74-6.3 221.74-0.5Q220.69-0.35 218.54-0.18 216.39 0 213.84 0L213.84 0ZM244.03 0L233.38 0Q230.08 0 228.31-0.95 226.53-1.9 225.88-3.58 225.23-5.25 225.23-7.45L225.23-7.45 225.23-15Q225.23-17 225.91-18.68 226.58-20.35 228.33-21.38 230.08-22.4 233.38-22.4L233.38-22.4 243.73-22.4Q247.63-22.4 249.71-21.48 251.78-20.55 252.56-18.88 253.33-17.2 253.33-15L253.33-15 253.33-8.6 244.58-8.6Q240.08-8.6 237.76-8.8 235.43-9 234.48-9.05L234.48-9.05 234.48-8.3Q234.43-6.3 236.88-6.3L236.88-6.3 238.43-6.3Q242.43-6.3 245.83-6.48 249.23-6.65 250.88-6.8L250.88-6.8 253.88-2.05Q253.88-1.55 253.03-1.1 252.18-0.65 250.06-0.33 247.93 0 244.03 0L244.03 0ZM234.48-14.1L234.48-13.4 244.08-13.4 244.08-14.1Q244.08-15.1 243.91-15.5 243.73-15.9 242.83-16 241.93-16.1 239.78-16.1L239.78-16.1 236.88-16.1Q234.48-16.1 234.48-14.1L234.48-14.1ZM276.03 0L266.53 0Q263.23 0 261.46-0.95 259.68-1.9 259.03-3.58 258.38-5.25 258.38-7.45L258.38-7.45 258.38-15Q258.38-17 259.06-18.68 259.73-20.35 261.48-21.38 263.23-22.4 266.53-22.4L266.53-22.4 272.93-22.4Q278.68-22.4 281.38-21.9 284.08-21.4 284.43-20.9L284.43-20.9 282.93-15.6Q281.88-15.7 279.13-15.9 276.38-16.1 273.08-16.1L273.08-16.1 270.03-16.1Q268.73-16.1 268.18-15.6 267.63-15.1 267.63-14.1L267.63-14.1 267.63-8.3Q267.63-7.3 268.13-6.8 268.63-6.3 270.03-6.3L270.03-6.3 272.58-6.3Q276.28-6.3 278.96-6.48 281.63-6.65 282.88-6.8L282.88-6.8 285.88-2.05Q285.88-1.35 283.41-0.68 280.93 0 276.03 0L276.03 0ZM301.18 0L298.08 0Q294.28 0 292.88-1.6 291.48-3.2 291.48-6.4L291.48-6.4 291.48-16.1 287.38-16.1 287.38-22.4 289.48-22.4Q290.33-22.4 290.85-22.73 291.38-23.05 291.53-23.9L291.53-23.9 292.48-29.25 300.68-29.25 300.68-22.4 309.03-22.4 309.03-16.1 300.68-16.1 300.68-8.35Q300.68-7.1 301.28-6.7 301.88-6.3 303.08-6.3L303.08-6.3 308.08-6.3 309.08-0.5Q308.03-0.35 305.88-0.18 303.73 0 301.18 0L301.18 0ZM334.13 0L320.23 0Q316.93 0 315.28-0.95 313.63-1.9 313.1-3.58 312.58-5.25 312.58-7.45L312.58-7.45 312.58-15Q312.58-17.1 313.13-18.78 313.68-20.45 315.3-21.43 316.93-22.4 320.23-22.4L320.23-22.4 334.13-22.4Q337.43-22.4 339.05-21.43 340.68-20.45 341.2-18.78 341.73-17.1 341.73-15L341.73-15 341.73-7.45Q341.73-5.25 341.2-3.58 340.68-1.9 339.05-0.95 337.43 0 334.13 0L334.13 0ZM324.23-6.3L324.23-6.3 330.18-6.3Q332.58-6.3 332.53-8.3L332.53-8.3 332.53-14.1Q332.53-15.1 332-15.6 331.48-16.1 330.18-16.1L330.18-16.1 324.28-16.1Q322.98-16.1 322.43-15.6 321.88-15.1 321.88-14.1L321.88-14.1 321.88-8.3Q321.83-6.3 324.23-6.3ZM356.32 0L347.22 0 347.22-22.4 354.32-22.4 356.22-21.4Q358.52-22.9 362.32-22.9L362.32-22.9Q364.82-22.9 366.72-22.38 368.62-21.85 369.8-21.25 370.97-20.65 371.27-20.4L371.27-20.4 368.77-13.9Q368.27-14.25 366.9-14.85 365.52-15.45 363.67-15.98 361.82-16.5 359.77-16.5L359.77-16.5 359.22-16.5Q357.82-16.5 357.07-16.03 356.32-15.55 356.32-13.95L356.32-13.95 356.32 0Z" opacity="1" transform="matrix(1,0,0,1,0,0)" fill="#1f5d6d" class="wordmark-text-0" data-fill-palette-color="primary" id="text-0"></path></svg></g></svg></g></svg></g></svg></g><g><svg viewBox="0 0 72.85336016030493 72.85336016030493" height="72.85336016030493" width="72.85336016030493"><g><svg></svg></g><g id="icon-0"><svg viewBox="0 0 72.85336016030493 72.85336016030493" height="72.85336016030493" width="72.85336016030493"><g><rect width="66.2425922939069" height="66.2425922939069" x="3.3053839331990176" y="3.3053839331990176" fill="#1f5d6d" data-fill-palette-color="accent"></rect><rect width="66.2425922939069" height="66.2425922939069" x="6.610767866398037" y="-2.220446049250313e-15" fill="#1f5d6d" opacity="0.5" data-fill-palette-color="accent"></rect></g><g transform="matrix(1,0,0,1,9.443954094854341,13.098697432519412)"><svg viewBox="0 0 53.96545197059625 46.65596529526611" height="46.65596529526611" width="53.96545197059625"><g><svg xmlns="http://www.w3.org/2000/svg" xmlns:xlink="http://www.w3.org/1999/xlink" version="1.1" x="0" y="0" viewBox="0.0008308965489886994 5.990424195155769 99.85116910345103 86.32657580484424" enable-background="new 0 0 100 92.316" xml:space="preserve" width="53.96545197059625" height="46.65596529526611" class="icon-cg-0" data-fill-palette-color="quaternary" id="cg-0"><path d="M34.87 64.586h23.979v21.406c0 3.498 2.825 6.324 6.323 6.324l0 0c3.499 0 6.349-2.826 6.349-6.324V64.586c1.578 0 2.733-1.243 2.733-2.695V45.926l-20.692-9.796H10.976l-5.494-3.108c-1.763-1.012-4.005-0.391-5.002 1.372l0 0c-0.998 1.763-0.388 3.992 1.374 5.002l8.681 4.978v41.619c0 3.498 2.838 6.324 6.337 6.324l0 0c3.499 0 6.336-2.826 6.336-6.324l-0.012-16.301 11.48 19.386c1.789 3.008 5.676 3.99 8.694 2.203l0 0c2.993-1.79 3.979-5.703 2.191-8.709L34.87 64.586z" fill="#ffffff" data-fill-palette-color="quaternary"></path><path d="M88.154 12.751l-3.138-4.85-30.632 6.146L65.9 30.567l5.272-3.296V15.176h3.032v13.775l-9.281 5.8-4.562-6.64-4.245 5.062 18.57 9.112 25.123-15.273 0.043-14.275L88.154 12.751zM79.837 23.199c-1.632 0-2.955-1.324-2.955-2.956 0-1.633 1.323-2.956 2.955-2.956 1.636 0 2.956 1.323 2.956 2.956C82.793 21.875 81.473 23.199 79.837 23.199z" fill="#ffffff" data-fill-palette-color="quaternary"></path><polygon points="53.579,36.145 0.202,10.407 0.202,6.011 56.139,33.173 " fill="#ffffff" data-fill-palette-color="quaternary"></polygon></svg></g></svg></g></svg></g></svg></g></svg></g><defs></defs></svg><rect width="395.52" height="60.55344721951141" fill="none" stroke="none" visibility="hidden"></rect></g></svg></g></svg>