<?xml version="1.0" standalone="no"?>
<!DOCTYPE svg PUBLIC "-//W3C//DTD SVG 20010904//EN"
 "http://www.w3.org/TR/2001/REC-SVG-20010904/DTD/svg10.dtd">
<svg version="1.0" xmlns="http://www.w3.org/2000/svg"
 width="500.000000pt" height="500.000000pt" viewBox="0 0 500.000000 500.000000"
 preserveAspectRatio="xMidYMid meet">

<g transform="translate(0.000000,500.000000) scale(0.100000,-0.100000)"
fill="#000000" stroke="none">
<path d="M1250 3798 c-18 -13 -42 -34 -52 -49 -29 -39 -40 -146 -33 -314 10
-248 48 -378 131 -455 24 -22 47 -40 51 -40 34 -1 34 -18 -7 -182 l-42 -165
-60 -34 c-32 -18 -64 -39 -70 -46 -16 -20 9 -44 38 -37 47 12 54 0 34 -53 -18
-47 -19 -48 -84 -66 -83 -21 -132 -46 -174 -88 -44 -44 -61 -79 -73 -150 -13
-79 1 -128 46 -168 60 -53 126 -66 325 -66 164 0 177 1 211 23 35 21 46 22
247 22 l211 0 52 -33 c46 -28 61 -32 123 -32 55 0 79 5 109 22 l37 23 33 -20
c45 -28 172 -28 226 0 34 17 61 19 233 20 160 1 205 -2 254 -16 47 -14 96 -18
244 -19 207 0 232 6 277 75 51 74 18 227 -63 299 -37 32 -45 45 -42 67 2 22
10 30 36 36 24 7 32 14 32 31 -1 34 -34 100 -68 133 -25 24 -32 42 -42 108
-11 70 -56 244 -74 286 -4 11 7 22 39 39 25 13 45 27 45 31 0 4 23 33 52 66
66 76 149 202 194 299 49 102 57 193 22 245 -45 66 -69 72 -278 66 -197 -5
-303 -21 -456 -70 -128 -41 -180 -87 -215 -190 -13 -38 -23 -51 -36 -49 -10 1
-71 9 -136 19 -145 21 -409 15 -530 -11 -43 -9 -80 -15 -81 -13 -1 1 -10 29
-20 61 -14 49 -31 73 -94 139 -93 98 -167 155 -264 207 -136 73 -247 90 -308
49z m184 -52 c133 -48 296 -166 383 -277 32 -41 47 -72 56 -115 7 -32 15 -64
19 -70 5 -8 41 -4 120 13 152 33 430 37 583 8 55 -10 111 -19 124 -19 25 -1
25 -1 50 92 15 55 59 104 119 132 122 58 420 107 600 99 92 -5 131 -25 146
-77 20 -72 -87 -292 -213 -437 -34 -38 -61 -73 -61 -77 0 -12 -57 -38 -85 -38
-33 0 -41 -22 -22 -63 38 -80 82 -251 91 -351 4 -42 10 -54 45 -86 48 -44 54
-64 15 -50 -57 22 -80 -1 -45 -46 12 -15 21 -37 21 -50 0 -28 2 -27 -39 -13
-28 10 -35 9 -55 -10 l-23 -21 -25 20 c-28 21 -53 26 -62 11 -3 -5 -27 -12
-53 -16 -144 -21 -223 -114 -226 -266 l-2 -69 -142 0 -143 0 0 29 c0 32 -34
81 -56 81 -23 0 -28 -28 -9 -56 15 -23 15 -27 1 -49 -28 -42 -71 -58 -149 -53
-62 3 -72 7 -94 33 -21 24 -28 27 -42 17 -70 -52 -74 -53 -150 -50 -68 3 -75
6 -102 36 -23 25 -29 42 -29 77 0 24 -5 47 -11 51 -19 12 -42 -23 -42 -65 l0
-41 -198 0 -199 0 0 28 c0 31 -29 94 -61 133 -11 15 -24 42 -28 60 -6 32 -9
34 -56 39 -63 7 -78 16 -71 45 6 25 -16 51 -34 40 -17 -10 -12 19 16 95 25 67
26 72 10 89 -17 18 -16 20 10 33 25 12 31 27 74 192 40 156 49 180 69 187 16
6 21 15 19 31 -3 20 -11 24 -53 28 -65 7 -108 38 -139 103 -51 104 -60 165
-60 393 -1 228 2 246 52 277 37 23 80 21 156 -7z m-224 -1451 c0 -9 11 -20 25
-25 14 -5 25 -16 25 -25 0 -19 51 -51 95 -59 24 -5 36 -14 43 -34 5 -15 24
-44 41 -66 25 -31 31 -48 31 -86 0 -55 -2 -56 -89 -66 l-61 -7 0 56 c0 41 -4
56 -16 61 -27 10 -34 -3 -34 -60 0 -60 -2 -61 -82 -48 -36 6 -37 8 -40 53 -3
38 -6 46 -23 46 -16 0 -21 -8 -23 -42 -3 -37 -6 -43 -25 -43 -25 0 -85 34
-104 59 -18 24 -15 110 6 157 10 22 36 56 58 74 66 55 173 89 173 55z m2152
-42 c92 -35 134 -88 145 -183 11 -90 -25 -131 -124 -145 l-53 -7 0 60 c0 45
-4 61 -16 66 -27 10 -34 -3 -34 -59 0 -30 -5 -57 -11 -60 -5 -4 -37 -4 -70 0
l-59 7 0 41 c0 55 -13 76 -37 61 -12 -7 -19 -26 -21 -57 l-3 -46 -45 14 c-69
20 -84 39 -84 99 1 93 56 172 139 197 37 11 127 8 168 -6 15 -5 26 -1 40 13
23 25 15 25 65 5z"/>
<path d="M1914 2374 c-36 -54 -9 -134 46 -134 35 0 70 40 70 80 0 69 -82 107
-116 54z"/>
<path d="M2602 2367 c-28 -30 -29 -85 -1 -121 26 -33 53 -33 84 -1 31 30 33
82 4 119 -25 32 -59 33 -87 3z"/>
<path d="M2205 2190 c-11 -4 -31 -19 -43 -33 -19 -20 -22 -32 -17 -55 6 -30
43 -71 82 -91 79 -41 212 49 183 124 -18 49 -141 82 -205 55z"/>
<path d="M2720 2185 c-19 -22 -8 -25 13 -3 9 10 13 18 8 18 -5 0 -14 -7 -21
-15z"/>
<path d="M2850 2196 c0 -2 8 -10 18 -17 15 -13 16 -12 3 4 -13 16 -21 21 -21
13z"/>
<path d="M2880 2143 c0 -26 -26 -49 -70 -61 -19 -6 -27 -11 -17 -11 36 -2 86
27 93 54 3 14 4 29 0 32 -3 4 -6 -3 -6 -14z"/>
<path d="M1790 2120 c-6 -11 -21 -25 -33 -30 -14 -6 -17 -9 -6 -9 18 -1 66 46
57 55 -4 3 -12 -4 -18 -16z"/>
<path d="M1600 2120 c0 -13 49 -44 57 -36 3 3 1 6 -5 6 -7 0 -21 9 -32 20 -11
11 -20 16 -20 10z"/>
<path d="M2710 2124 c0 -17 38 -47 52 -41 9 4 7 6 -4 6 -9 1 -24 11 -32 23 -9
12 -16 18 -16 12z"/>
<path d="M1683 2073 c9 -2 25 -2 35 0 9 3 1 5 -18 5 -19 0 -27 -2 -17 -5z"/>
<path d="M3545 3073 c-11 -21 -37 -49 -57 -62 -29 -19 -35 -27 -27 -37 9 -11
17 -11 42 4 35 20 87 87 87 114 0 30 -24 20 -45 -19z"/>
<path d="M3560 2975 c-12 -13 -38 -29 -56 -35 -34 -12 -42 -24 -24 -35 29 -18
142 58 126 84 -11 16 -20 13 -46 -14z"/>
</g>
</svg>
