<?xml version="1.0" standalone="no"?>
<!DOCTYPE svg PUBLIC "-//W3C//DTD SVG 20010904//EN"
 "http://www.w3.org/TR/2001/REC-SVG-20010904/DTD/svg10.dtd">
<svg version="1.0" xmlns="http://www.w3.org/2000/svg"
 width="720.000000pt" height="720.000000pt" viewBox="0 0 720.000000 720.000000"
 preserveAspectRatio="xMidYMid meet">

<g transform="translate(0.000000,720.000000) scale(0.100000,-0.100000)"
fill="#000000" stroke="none">
<path d="M3445 6570 c-167 -14 -376 -46 -515 -80 -136 -33 -367 -107 -375
-120 -3 -4 2 -13 11 -20 12 -11 33 -7 122 23 752 253 1556 194 2269 -167 216
-109 388 -227 629 -429 l34 -29 0 31 c0 27 -13 41 -95 110 -453 375 -983 599
-1575 665 -181 21 -372 26 -505 16z"/>
<path d="M5386 6444 c-11 -28 -7 -32 102 -107 249 -172 516 -419 695 -642 96
-119 241 -330 301 -438 33 -59 40 -66 57 -57 10 6 19 14 19 19 0 4 -38 69 -84
145 -249 404 -599 769 -982 1026 -81 55 -103 66 -108 54z"/>
<path d="M1528 5700 c-369 -370 -602 -759 -752 -1253 -41 -135 -44 -167 -18
-167 14 0 25 25 54 128 85 302 239 619 432 891 97 137 201 258 341 396 116
115 131 133 125 155 -7 23 -19 14 -182 -150z"/>
<path d="M6073 5213 c3 -5 30 -50 61 -102 352 -581 491 -1273 391 -1947 -28
-187 -87 -420 -145 -570 -28 -73 -28 -74 -8 -85 11 -6 21 -9 23 -7 9 9 71 199
101 307 70 254 104 512 104 786 0 335 -46 623 -152 945 -92 283 -282 658 -341
674 -30 8 -39 7 -34 -1z"/>
<path d="M377 4588 c-72 -243 -118 -478 -138 -718 -15 -170 -6 -544 16 -705
50 -366 157 -721 322 -1064 52 -108 55 -112 73 -96 17 16 16 21 -45 148 -175
367 -278 740 -316 1140 -17 190 -7 604 21 782 27 178 60 325 110 493 22 73 40
135 40 137 0 3 -11 5 -24 5 -21 0 -26 -11 -59 -122z"/>
<path d="M6883 4153 c4 -27 13 -102 22 -168 94 -737 -87 -1530 -496 -2175 -43
-67 -49 -82 -39 -99 6 -12 12 -21 14 -21 5 0 91 133 136 211 55 93 156 299
203 414 225 550 303 1171 221 1745 -19 134 -21 140 -46 140 -19 0 -20 -4 -15
-47z"/>
<path d="M790 2580 c-8 -5 -39 -15 -67 -21 -29 -7 -53 -17 -53 -22 0 -25 98
-254 159 -372 90 -173 158 -282 284 -450 192 -258 384 -449 640 -640 417 -309
837 -484 1387 -580 131 -23 194 -28 407 -32 138 -3 280 -2 316 1 63 7 65 8 82
46 10 22 38 62 64 90 45 50 47 51 136 66 136 23 376 87 505 134 148 54 370
161 511 245 125 76 134 77 231 31 30 -14 58 -26 63 -26 26 0 223 165 369 308
146 144 359 395 345 405 -2 2 -32 22 -66 45 l-61 41 -92 -115 c-50 -63 -95
-114 -99 -114 -5 0 -14 6 -20 13 -9 11 -37 -12 -138 -112 -390 -385 -849 -643
-1367 -771 -115 -28 -332 -65 -421 -72 -32 -2 -40 -7 -45 -28 l-6 -25 -264 1
c-273 0 -375 10 -581 54 -164 35 -172 38 -165 65 6 22 1 25 -81 50 -315 96
-660 277 -943 495 -122 94 -406 378 -500 500 -40 52 -103 141 -140 197 -60 92
-69 101 -85 89 -15 -11 -16 -16 -6 -37 32 -64 -25 24 -83 131 -64 117 -124
244 -167 358 -26 66 -26 67 -49 52z m420 -720 c12 -16 19 -30 16 -30 -2 0 -14
14 -26 30 -12 17 -19 30 -16 30 2 0 14 -13 26 -30z m41 -57 c13 -16 12 -17 -3
-4 -10 7 -18 15 -18 17 0 8 8 3 21 -13z m30 -40 c13 -16 12 -17 -3 -4 -17 13
-22 21 -14 21 2 0 10 -8 17 -17z m44 -53 c10 -11 16 -20 13 -20 -3 0 -13 9
-23 20 -10 11 -16 20 -13 20 3 0 13 -9 23 -20z m55 -65 c13 -14 21 -25 18 -25
-2 0 -15 11 -28 25 -13 14 -21 25 -18 25 2 0 15 -11 28 -25z m140 -152 l75
-78 -77 75 c-72 69 -83 80 -75 80 1 0 36 -35 77 -77z"/>
<path d="M5525 882 c-602 -424 -1280 -629 -2015 -609 -234 6 -400 26 -615 73
-136 29 -151 31 -163 16 -6 -9 -9 -19 -5 -23 5 -4 60 -19 123 -33 768 -170
1534 -82 2235 259 191 93 422 237 583 363 l23 18 -23 11 c-20 9 -37 0 -143
-75z"/>
</g>
</svg>
